<mxfile host="app.diagrams.net" modified="2023-11-06T16:16:10.628Z" agent="Mozilla/5.0 (Windows NT 10.0; Win64; x64) AppleWebKit/537.36 (KHTML, like Gecko) Chrome/119.0.0.0 Safari/537.36 Edg/119.0.0.0" version="22.0.8" etag="vhOitXQe3KTyr-PEZ-0b" type="github">
  <diagram name="Page-1" id="NgYAz7tYMBaKESRX_zUQ">
    <mxGraphModel>
      <root>
        <mxCell id="0" />
        <mxCell id="1" parent="0" />
      </root>
    </mxGraphModel>
  </diagram>
</mxfile>
